<svg width="54" height="50" fill="none" xmlns="http://www.w3.org/2000/svg"><path d="M33.266 1.87l12.27 21.204a3.731 3.731 0 010 3.738l-12.27 21.205a3.748 3.748 0 01-3.244 1.869h7.19a3.748 3.748 0 003.245-1.87l12.27-21.204a3.731 3.731 0 000-3.738L40.457 1.87A3.748 3.748 0 0037.212 0h-7.19c1.338 0 2.575.713 3.244 1.87z" fill="#39435A"/><path d="M33.266 1.87l.547.944c.929.014 1.894.09 2.88.235 1.96.287 3.767.812 5.31 1.494L40.457 1.87A3.747 3.747 0 0037.212 0h-7.19c1.338 0 2.575.713 3.244 1.87z" fill="#2C374C"/><path d="M19.424 1.87l12.27 21.204a3.73 3.73 0 010 3.738l-12.27 21.205a3.748 3.748 0 01-3.245 1.869h7.191a3.748 3.748 0 003.244-1.87l12.271-21.204a3.731 3.731 0 000-3.738L26.615 1.87A3.748 3.748 0 0023.37 0h-7.19c1.338 0 2.574.713 3.244 1.87z" fill="#39435A"/><path d="M19.963 48.016L7.693 26.812a3.731 3.731 0 010-3.738l12.27-21.205A3.748 3.748 0 0123.208 0h-7.191a3.748 3.748 0 00-3.245 1.869L.502 23.074a3.731 3.731 0 000 3.738l12.27 21.204a3.748 3.748 0 003.245 1.87h7.19a3.748 3.748 0 01-3.244-1.87z" fill="#435F94"/><path d="M27.053 48.016L14.782 26.812a3.731 3.731 0 010-3.738l12.27-21.205A3.748 3.748 0 0130.298 0h-7.19a3.748 3.748 0 00-3.245 1.87L7.592 23.073a3.731 3.731 0 000 3.738l12.27 21.205a3.748 3.748 0 003.244 1.869h7.191a3.749 3.749 0 01-3.244-1.87z" fill="#377DFF"/><path d="M34.279 48.016l-12.27-21.204a3.73 3.73 0 010-3.738l12.27-21.205A3.748 3.748 0 0137.523 0h-7.19a3.748 3.748 0 00-3.245 1.87l-12.27 21.204a3.73 3.73 0 000 3.738l12.27 21.205a3.748 3.748 0 003.245 1.869h7.19a3.749 3.749 0 01-3.244-1.87z" fill="#37DBFF"/></svg>